<?xml version="1.0" standalone="no"?>
<!DOCTYPE svg PUBLIC "-//W3C//DTD SVG 20010904//EN"
 "http://www.w3.org/TR/2001/REC-SVG-20010904/DTD/svg10.dtd">
<svg version="1.0" xmlns="http://www.w3.org/2000/svg"
 width="2000.000000pt" height="2000.000000pt" viewBox="0 0 2000.000000 2000.000000"
 preserveAspectRatio="xMidYMid meet">
 <rect width="100%" height="100%" fill="#ffffff"/>
<g transform="translate(0.000000,2000.000000) scale(0.100000,-0.100000)"
fill="#000000" stroke="none">
<path d="M0 10000 l0 -10000 10000 0 10000 0 0 10000 0 10000 -10000 0 -10000
0 0 -10000z m13033 5780 c26 -16 56 -44 67 -62 20 -33 20 -52 20 -1798 0
-1723 -1 -1766 -19 -1797 -11 -17 -40 -45 -65 -62 -53 -37 -944 -481 -1026
-512 -104 -39 -90 -44 -775 296 -1945 965 -1924 955 -1977 955 -55 0 -79 -10
-121 -49 -61 -56 -57 61 -57 -1649 l0 -1569 31 -42 c38 -54 105 -85 163 -78
26 3 212 89 510 236 367 180 478 231 508 231 71 0 157 -63 176 -128 9 -36 9
-1669 -1 -1704 -11 -42 -60 -91 -117 -118 -46 -21 -54 -23 -88 -11 -35 12
-992 482 -3562 1750 -602 297 -1107 550 -1123 563 -57 47 -56 26 -57 968 0
573 4 878 11 903 5 20 25 52 42 70 23 22 393 209 1242 628 666 328 2304 1135
3640 1794 1337 659 2434 1202 2440 1206 21 20 91 9 138 -21z m-1865 -4399
c3440 -1695 3252 -1601 3281 -1645 l26 -40 3 -888 c2 -855 2 -891 -17 -932
-10 -24 -34 -54 -52 -68 -19 -14 -792 -399 -1719 -856 -927 -456 -2558 -1261
-3625 -1787 -1328 -656 -1953 -959 -1982 -962 -62 -8 -109 4 -148 38 -71 62
-66 -77 -63 1849 3 1669 4 1736 22 1772 10 21 39 53 65 72 25 18 272 145 549
281 573 283 560 279 672 227 36 -16 616 -303 1289 -637 l1224 -607 62 4 c48 3
71 10 97 30 74 56 68 -81 68 1663 0 1691 3 1591 -52 1642 -31 30 -90 53 -132
53 -25 0 -163 -64 -506 -235 -404 -202 -478 -235 -516 -235 -74 0 -149 49
-173 113 -8 19 -11 300 -11 876 l0 848 30 41 c16 23 47 50 67 61 85 45 -2 83
1541 -678z"/>
</g>
</svg>
